<svg width="24" height="24" fill="none" xmlns="http://www.w3.org/2000/svg"><g clip-path="url(#clip0)"><path d="M22 13.097c0 4.113-4.567 7.45-10.203 7.45-5.189 0-9.459-2.82-10.121-6.483a5.715 5.715 0 01-.081-.967c0-.953.243-1.866.689-2.71C3.77 7.61 7.46 5.634 11.798 5.634c2.243 0 4.31.531 6 1.417.35.19.675.38.986.599-.014.054-.014.109-.027.163.027-.04.04-.081.067-.136.203.136.392.286.582.436.337.272.635.558.919.871.067.069.135.15.189.218a6.7 6.7 0 011.189 2.084c.081.231.149.477.19.708.08.381.107.736.107 1.103z" fill="#FF680A"/><path d="M18.946 7.5c.257.177.5.367.73.572.31.272.594.545.851.844.081.095.162.19.243.3.19.245.365.49.514.749.216.367.392.749.527 1.144.054.3.081.613.081.926v.04c0 .954-.243 1.853-.69 2.683v.014c-1.472 2.778-5.175 4.753-9.513 4.753-4.783 0-8.797-2.41-9.905-5.652a5.668 5.668 0 01.5-3.46c1.405-2.886 5.176-4.956 9.622-4.956 2.23 0 4.283.518 5.959 1.403.338.177.662.367.973.585l.108.055z" fill="#FF680A"/><path d="M18.527 11.163c0 2.492-3.108 4.508-6.946 4.508-2.419 0-4.54-.803-5.784-2.015-.365-.545-.567-1.145-.567-1.785 0-2.492 3.108-4.507 6.946-4.507 2.418 0 4.54.803 5.783 2.015.365.545.568 1.144.568 1.784z" fill="#FFB90A"/><path d="M11.595 16.052c-2.433 0-4.69-.79-6.054-2.124-.838-.817-1.27-1.77-1.27-2.778 0-1.335.783-2.588 2.216-3.514 1.378-.885 3.189-1.389 5.121-1.389 2.906 0 5.527 1.144 6.703 2.9.419.627.635 1.294.635 2.003 0 1.334-.784 2.587-2.216 3.513-1.392.9-3.216 1.39-5.135 1.39zm0-9.015c-1.784 0-3.446.45-4.703 1.253-1.203.776-1.851 1.798-1.851 2.86 0 .79.364 1.552 1.04 2.22 1.216 1.198 3.284 1.906 5.514 1.906 1.783 0 3.446-.45 4.702-1.253 1.203-.776 1.852-1.797 1.852-2.86 0-.544-.163-1.062-.5-1.566-1.027-1.552-3.406-2.56-6.054-2.56z" fill="#000"/><path d="M11.595 20.11c-4.865 0-9.081-2.437-10.27-5.91l-.028-.068c-.013-.054-.027-.095-.04-.15l-.014-.027A5.933 5.933 0 011 12.266c0-1.743.757-3.404 2.19-4.78C4.54 6.18 6.472 5.212 8.607 4.75a.392.392 0 01.46.3.395.395 0 01-.298.463c-4.121.885-7 3.663-7 6.754 0 .572.095 1.13.284 1.675l.014.055c.513 1.47 1.716 2.819 3.378 3.772 1.757 1.022 3.878 1.553 6.135 1.553 4.176 0 7.905-1.907 9.27-4.753v-.014c.352-.735.54-1.511.54-2.301 0-.3-.026-.6-.08-.9a5.378 5.378 0 00-.392-1.252 7.312 7.312 0 00-.378-.722 6.59 6.59 0 00-.905-1.158.377.377 0 01.013-.544.37.37 0 01.54.014c.284.286.54.599.77.926l.244.367c.162.26.31.531.432.817.203.463.351.954.446 1.444.054.34.095.695.095 1.035 0 .912-.203 1.798-.608 2.642 0 0 0 .014-.014.014-.73 1.511-2.054 2.805-3.838 3.731-1.797.94-3.919 1.444-6.121 1.444zM17.824 6.778a.309.309 0 01-.189-.054c-1.716-1.022-3.69-1.512-6.04-1.512a.38.38 0 01-.379-.381c0-.205.176-.382.379-.382 2.486 0 4.594.532 6.432 1.621.19.109.243.34.135.531a.403.403 0 01-.338.177z" fill="#000"/><path d="M5.797 15.262c0-.231-.756-.585-1.054-.286-.148.15-.162.477-.027.613.27.286 1.095-.082 1.081-.327zM3.757 10.414c0-.15-.514-.395-.716-.19a.331.331 0 00-.014.422c.176.177.73-.068.73-.232zM10.81 17.033c-.12.19.298.912.703.844.217-.04.406-.286.379-.49-.068-.381-.96-.558-1.081-.354zM18.176 15.14c-.19-.123-.906.313-.825.722.04.218.298.408.487.367.365-.068.527-.966.338-1.09zM19.419 11.068c.121.164.851.04.919-.34.027-.191-.122-.436-.284-.463-.338-.055-.757.626-.635.803zM6.31 11.027l4.811-.436-3.31 3.323-1.5-2.887zM8.378 14.241l3.19-3.54.594 4.03-3.784-.49zM13.486 14.677l-1.23-3.61 3.92 2.343-2.69 1.267z" fill="#fff"/><path d="M24 5.961c-.284 1.307-1.122 2.424-2.365 2.996-.365.164-.73.273-1.108.327-.04 0-.081.014-.122.014-.094.013-.189.013-.283.027-.27.013-.54 0-.798-.041a4.579 4.579 0 01-1.486-.504c.08-.34.189-.68.338-.994.027-.054.054-.095.067-.15.04-.082.081-.15.122-.231.054-.096.122-.191.189-.286a4.099 4.099 0 011.635-1.349 4.258 4.258 0 011.149-.326c.405-.055.824-.041 1.23.013.5.082.986.245 1.432.504z" fill="#88E05E"/><path d="M17.108 12.743L12.5 10.7l4.932-.218-.324 2.261zM17.108 9.747l-4.5.504 3.04-1.811 1.46 1.307zM14.433 8.263L12.23 9.87l-1.108-1.948 3.31.34zM9.892 8.072l1.27 1.702L7.73 8.89l2.162-.817zM7 9.311l3.662.831-4.365.272L7 9.311z" fill="#fff"/><path fill-rule="evenodd" clip-rule="evenodd" d="M21.604 4.377a.35.35 0 01.412-.274c.445.09.79.451.844.908.156 1.34-.287 2.627-1.237 3.531a3.819 3.819 0 01-.95.677l-.003.001a.582.582 0 01-.097.049c-.033.014-.066.03-.102.047h-.002c-.038.018-.081.038-.128.058h-.002a3.89 3.89 0 01-.765.228c-.264.053-.54.08-.803.08a4.418 4.418 0 01-.73-.068c-.445-.09-.79-.45-.844-.908v-.001a4.389 4.389 0 01.013-1.101V7.6c.003-.018.007-.049.015-.085.008-.043.018-.086.025-.119l.001-.004a1.748 1.748 0 00.026-.121l.072-.291a4.184 4.184 0 011.102-1.81 4.07 4.07 0 01.957-.673c.356-.186.75-.318 1.146-.385a.35.35 0 01.116.69 3.209 3.209 0 00-.952.321 3.366 3.366 0 00-.792.56 3.485 3.485 0 00-.9 1.475l-.067.269-.025.117v.004a1.748 1.748 0 00-.032.153v.003a1.026 1.026 0 01-.01.068 3.69 3.69 0 000 .851c.017.148.128.27.282.304.201.033.407.054.597.054.218 0 .448-.022.665-.066a3.2 3.2 0 00.74-.235h.001c.038-.018.081-.038.128-.058a.174.174 0 01.006-.002l.002-.002a3.13 3.13 0 00.826-.582l.002-.001c.782-.744 1.157-1.81 1.024-2.943a.356.356 0 00-.287-.304.35.35 0 01-.274-.412z" fill="#000"/></g><defs><clipPath id="clip0"><path fill="#fff" transform="translate(1 4)" d="M0 0h23v16.56H0z"/></clipPath></defs></svg>